<svg width="128" height="31" viewBox="0 0 128 31" fill="none" xmlns="http://www.w3.org/2000/svg">
<path fill-rule="evenodd" clip-rule="evenodd" d="M66.361 0.219617C63.8456 0.627376 62.3459 1.25013 58.1062 3.64644C53.7681 6.09832 50.4805 7.73692 48.72 8.32499C47.4804 8.73897 46.6168 8.78655 38.2086 8.90461C27.9515 9.04846 22.7042 9.29947 19.9283 9.77949C15.2942 10.5806 11.4452 12.1387 7.2933 14.8943C3.79891 17.2134 -0.396104 20.9313 0.0300129 21.3317C0.0775587 21.3764 0.923738 20.765 1.91054 19.973C7.26795 15.6729 13.7609 12.2954 19.1795 10.9896C21.668 10.3898 27.1351 10.1314 37.4729 10.1252C47.0041 10.1194 47.1595 10.1014 50.0165 8.67472C50.8185 8.2743 53.4546 6.85248 55.8745 5.51515C58.2944 4.17781 61.1202 2.79134 62.1541 2.43428C64.0014 1.7964 64.1118 1.78551 68.5194 1.80908C77.4634 1.85688 86.6792 3.46301 95.9349 6.58701C103.743 9.22255 108.856 11.7671 116.804 16.9731C119.849 18.9676 121.302 19.5873 123.712 19.9194C125.18 20.122 127.657 19.9357 127.998 19.5968C128.046 19.5501 127.146 19.4648 125.999 19.4074C123.352 19.2747 121.901 18.732 119.223 16.8712C118.103 16.0931 115.37 14.2484 113.15 12.7716C102.921 5.96915 90.3411 1.51849 78.051 0.353907C73.6916 -0.0591882 68.4512 -0.11944 66.361 0.219617ZM84.7018 9.57117C80.9881 10.2668 77.2777 11.8819 76.1702 13.2846C75.8607 13.6765 75.6396 14.0287 75.6786 14.0674C75.7174 14.1061 76.3476 13.7844 77.0788 13.3526C78.7308 12.377 81.4559 11.379 83.7509 10.9089C85.8086 10.4876 90.0422 10.4254 92.2923 10.7833C95.6528 11.318 100.877 12.8143 103.965 14.1263L105.028 14.5779L106.056 13.9149L107.084 13.2521L105.968 12.7614C103.874 11.841 99.698 10.5465 97.002 9.98248C93.5502 9.26034 87.4507 9.05624 84.7018 9.57117ZM24.7863 12.4777C19.6334 13.0102 13.8616 14.7718 11.7785 16.4473C11.5318 16.6458 11.9763 16.4946 12.7662 16.1115C14.8098 15.1204 18.3591 14.0132 20.9737 13.5514C24.4436 12.9384 29.1421 13.0413 40.2611 13.974C53.7571 15.1061 57.9037 15.2871 66.1646 15.1057L73.2291 14.9503L73.958 14.1868C75.0469 13.046 74.9372 12.9264 72.9488 13.0847C66.5218 13.5963 48.7473 13.4431 37.2334 12.7768C32.6827 12.5133 25.9956 12.3526 24.7863 12.4777ZM107.105 15.2738C105.334 16.5082 101.514 18.3945 98.628 19.4596C97.5488 19.8581 96.6656 20.2149 96.6656 20.2529C96.6656 20.2907 96.8804 20.6827 97.1431 21.124C97.5723 21.8453 97.6898 21.9111 98.3066 21.7768C99.9664 21.4155 103.872 20.0339 105.82 19.119C107.682 18.2448 111.236 15.9866 111.236 15.6782C111.236 15.6171 110.656 15.2573 109.947 14.8789L108.658 14.1908L107.105 15.2738ZM21.6465 14.643C17.4849 16.0113 15.1572 19.6802 15.7421 23.9494C16.3407 28.317 19.9752 31.2144 24.5564 30.9761C26.7998 30.8593 28.3395 30.1941 29.8641 28.6827C34.0308 24.552 32.7561 17.4913 27.4047 15.0601C25.8841 14.3693 23.0935 14.1672 21.6465 14.643ZM84.9191 14.6951C78.8498 16.6147 77.0222 24.2305 81.553 28.7218C82.9648 30.1214 84.6809 30.8518 86.8503 30.9763C88.9266 31.0954 90.2817 30.7753 91.8437 29.7966C97.5176 26.241 96.9473 17.8193 90.8448 15.047C89.2756 14.3342 86.5688 14.1735 84.9191 14.6951ZM8.27785 16.8455C6.36817 18.7557 4.48967 20.9706 4.48967 21.3123C4.48967 21.5952 5.50809 21.4449 6.44286 21.0242C7.71986 20.4495 9.15879 18.9656 10.0404 17.3146C10.7496 15.9864 10.992 14.7889 10.5515 14.7889C10.432 14.7889 9.40886 15.7142 8.27785 16.8455ZM90.0496 16.6267C92.4762 17.8591 93.8344 20.0288 93.8395 22.6817C93.8516 28.7269 86.6276 31.7189 82.3229 27.4512C79.9387 25.0876 79.6276 21.5133 81.5649 18.7382C82.2155 17.8059 84.0653 16.5015 85.2382 16.1478C86.5287 15.7585 88.7817 15.9828 90.0496 16.6267ZM27.029 16.7843C28.4085 17.3924 29.7421 18.6746 30.4169 20.0419C30.9139 21.0489 31.0285 21.5874 31.0285 22.9131C31.0285 26.7166 28.1513 29.6972 24.4627 29.7148C21.6979 29.7279 19.4915 28.4226 18.2118 26.0167C17.3959 24.4833 17.351 21.6458 18.118 20.1026C19.7534 16.8123 23.7313 15.3311 27.029 16.7843ZM85.613 16.7981C84.3216 17.118 83.6096 17.5511 82.6116 18.6246C79.7081 21.7472 80.9271 26.8618 84.9287 28.3459C88.4727 29.6605 91.9696 27.7691 92.9593 24.0024C93.6781 21.2661 92.1611 18.1694 89.5779 17.0994C88.5893 16.69 86.646 16.5424 85.613 16.7981ZM22.3088 17.0847C19.8194 18.0356 18.2046 20.2743 18.1801 22.8089C18.1485 26.0792 20.8622 28.8048 24.2072 28.8617C25.9191 28.8908 27.0373 28.4652 28.282 27.3111C29.6292 26.0618 30.3191 24.5126 30.3106 22.7553C30.2944 19.4005 27.655 16.7725 24.3378 16.809C23.5977 16.817 22.6847 16.9411 22.3088 17.0847ZM71.6325 23.9134C64.051 24.4842 57.9943 24.7485 45.4268 25.0564L34.2206 25.331L33.5403 25.9667L32.8601 26.6021L46.2043 26.4649C53.5436 26.3893 61.9202 26.2355 64.8189 26.1225C70.4291 25.9042 78.5634 25.4464 78.6846 25.3421C78.8824 25.1718 77.4941 23.4641 77.1801 23.4914C76.9808 23.509 74.4842 23.6989 71.6325 23.9134ZM1.82643 25.3161C1.4122 25.811 5.34572 26.4053 9.8047 26.5218C13.4724 26.6174 13.6918 26.5994 14.2644 26.1528L14.8667 25.6832L10.9678 25.6814C7.50366 25.6799 3.93437 25.446 2.55285 25.13C2.28956 25.0698 1.96257 25.1536 1.82643 25.3161Z" fill="white"/>
</svg>
